<?xml version="1.0" encoding="utf-8"?>
<!-- Generator: Adobe Illustrator 27.5.0, SVG Export Plug-In . SVG Version: 6.00 Build 0)  -->
<svg version="1.1" xmlns="http://www.w3.org/2000/svg" xmlns:xlink="http://www.w3.org/1999/xlink" x="0px" y="0px"
	 viewBox="0 0 500 500" style="enable-background:new 0 0 500 500;" xml:space="preserve">
<g id="Background_Complete">
	<g>
		<g>
			<g>
				<path style="fill:#E0E0E0;" d="M100.617,184.868l4.185,1.573l-3.634,1.031c-1.213,0.344-2.175,1.268-2.567,2.466l-1.315,4.018
					l-1.617-4.03c-0.401-1-1.21-1.782-2.223-2.15l-3.675-1.335l3.981-1.636c0.963-0.396,1.721-1.171,2.096-2.143l1.439-3.737
					l1.032,3.474C98.656,183.537,99.507,184.451,100.617,184.868z"/>
			</g>
		</g>
		<g>
			<g>
				<path style="fill:#E0E0E0;" d="M303.211,197.238l4.687,1.762l-4.069,1.154c-1.358,0.385-2.436,1.421-2.875,2.762l-1.473,4.501
					l-1.811-4.514c-0.449-1.12-1.355-1.996-2.49-2.408l-4.117-1.495l4.459-1.832c1.079-0.443,1.928-1.311,2.347-2.4l1.611-4.185
					l1.155,3.891C301.015,195.748,301.968,196.771,303.211,197.238z"/>
			</g>
		</g>
		<g>
			<g>
				<path style="fill:#E0E0E0;" d="M286.506,91.912l2.863,1.076l-2.486,0.705c-0.829,0.235-1.488,0.868-1.756,1.687l-0.9,2.749
					l-1.106-2.757c-0.275-0.684-0.828-1.219-1.521-1.471l-2.514-0.913l2.724-1.119c0.659-0.271,1.177-0.801,1.433-1.466l0.984-2.556
					l0.706,2.377C285.164,91.001,285.746,91.626,286.506,91.912z"/>
			</g>
		</g>
		<g>
			<g>
				<path style="fill:#E0E0E0;" d="M111.949,70.683l2.863,1.076l-2.486,0.705c-0.829,0.235-1.488,0.868-1.756,1.687l-0.899,2.749
					l-1.106-2.757c-0.274-0.684-0.828-1.219-1.521-1.471l-2.515-0.913l2.724-1.119c0.659-0.271,1.177-0.801,1.434-1.466l0.984-2.556
					l0.706,2.377C110.608,69.773,111.19,70.398,111.949,70.683z"/>
			</g>
		</g>
		<g>
			<g>
				<path style="fill:#E0E0E0;" d="M167.836,73.244l6.339,2.383l-5.504,1.561c-1.837,0.521-3.294,1.921-3.887,3.736l-1.991,6.086
					l-2.449-6.104c-0.608-1.515-1.832-2.7-3.367-3.257l-5.567-2.021l6.03-2.477c1.459-0.599,2.607-1.773,3.174-3.245l2.179-5.659
					l1.563,5.262C164.866,71.229,166.155,72.612,167.836,73.244z"/>
			</g>
		</g>
		<g>
			<g>
				<path style="fill:#E0E0E0;" d="M268.168,62.671l4.185,1.573l-3.634,1.03c-1.213,0.344-2.175,1.268-2.567,2.466l-1.315,4.018
					l-1.617-4.03c-0.401-1.001-1.21-1.783-2.223-2.15l-3.676-1.335l3.981-1.636c0.964-0.396,1.721-1.171,2.096-2.143l1.439-3.737
					l1.032,3.475C266.208,61.34,267.058,62.254,268.168,62.671z"/>
			</g>
		</g>
		<g>
			<g>
				<path style="fill:#E0E0E0;" d="M400.81,168.116l4.185,1.573l-3.634,1.031c-1.212,0.344-2.175,1.268-2.567,2.466l-1.315,4.018
					l-1.617-4.03c-0.401-1-1.21-1.782-2.223-2.15l-3.676-1.335l3.981-1.636c0.963-0.396,1.721-1.171,2.096-2.143l1.439-3.737
					l1.032,3.474C398.849,166.785,399.7,167.699,400.81,168.116z"/>
			</g>
		</g>
		<g>
			<g>
				<path style="fill:#E0E0E0;" d="M94.565,209.058l1.576,0.593l-1.369,0.388c-0.457,0.129-0.819,0.478-0.967,0.929l-0.495,1.513
					l-0.609-1.518c-0.151-0.377-0.455-0.671-0.837-0.81l-1.384-0.503l1.499-0.616c0.363-0.149,0.648-0.441,0.789-0.807l0.542-1.407
					l0.389,1.309C93.827,208.557,94.147,208.901,94.565,209.058z"/>
			</g>
		</g>
		<g>
			<g>
				<path style="fill:#E0E0E0;" d="M226.325,68.766l1.576,0.593l-1.368,0.388c-0.457,0.13-0.819,0.478-0.967,0.929l-0.495,1.514
					l-0.609-1.518c-0.151-0.377-0.456-0.671-0.837-0.81l-1.384-0.503l1.499-0.616c0.363-0.149,0.648-0.441,0.789-0.807l0.542-1.407
					l0.389,1.309C225.587,68.265,225.907,68.609,226.325,68.766z"/>
			</g>
		</g>
		<g>
			<g>
				<path style="fill:#E0E0E0;" d="M399.758,406.509l2.863,1.076l-2.486,0.705c-0.83,0.235-1.488,0.868-1.756,1.687l-0.9,2.749
					l-1.106-2.757c-0.275-0.684-0.828-1.22-1.521-1.471l-2.514-0.913l2.724-1.119c0.659-0.271,1.178-0.801,1.434-1.466l0.984-2.556
					l0.706,2.377C398.417,405.599,398.998,406.223,399.758,406.509z"/>
			</g>
		</g>
		<g>
			<g>
				<path style="fill:#E0E0E0;" d="M384.74,432.258l4.185,1.573l-3.634,1.03c-1.213,0.344-2.175,1.268-2.567,2.466l-1.315,4.018
					l-1.617-4.03c-0.401-1-1.21-1.783-2.223-2.15l-3.676-1.335l3.981-1.636c0.964-0.396,1.721-1.171,2.096-2.143l1.439-3.736
					l1.032,3.474C382.779,430.928,383.63,431.841,384.74,432.258z"/>
			</g>
		</g>
		<g>
			<g>
				<path style="fill:#E0E0E0;" d="M177.307,444.099l4.185,1.574l-3.634,1.03c-1.213,0.344-2.175,1.268-2.567,2.466l-1.315,4.018
					l-1.617-4.03c-0.401-1-1.21-1.783-2.223-2.15l-3.676-1.335l3.981-1.636c0.964-0.396,1.721-1.171,2.096-2.143l1.439-3.737
					l1.032,3.474C175.346,442.769,176.197,443.682,177.307,444.099z"/>
			</g>
		</g>
		<g>
			<g>
				<path style="fill:#E0E0E0;" d="M352.902,422.893l1.576,0.593l-1.368,0.388c-0.457,0.13-0.819,0.478-0.967,0.929l-0.495,1.514
					l-0.609-1.518c-0.151-0.377-0.456-0.671-0.837-0.81l-1.384-0.503l1.499-0.616c0.363-0.149,0.648-0.441,0.789-0.807l0.542-1.407
					l0.388,1.309C352.164,422.392,352.484,422.736,352.902,422.893z"/>
			</g>
		</g>
		<g>
			<g>
				<path style="fill:#E0E0E0;" d="M324.044,151.184l1.576,0.593l-1.368,0.388c-0.457,0.13-0.819,0.478-0.967,0.929l-0.495,1.514
					l-0.609-1.518c-0.151-0.377-0.456-0.671-0.837-0.81l-1.384-0.503l1.499-0.616c0.363-0.149,0.648-0.441,0.789-0.807l0.542-1.407
					l0.388,1.309C323.306,150.683,323.626,151.027,324.044,151.184z"/>
			</g>
		</g>
		<g>
			<g>
				<path style="fill:#E0E0E0;" d="M113.127,114.446l4.343,1.633l-3.771,1.069c-1.259,0.357-2.257,1.316-2.664,2.56l-1.364,4.17
					l-1.678-4.182c-0.416-1.039-1.256-1.85-2.307-2.232l-3.814-1.385l4.131-1.698c1-0.411,1.786-1.215,2.175-2.224l1.493-3.878
					l1.071,3.606C111.092,113.065,111.975,114.013,113.127,114.446z"/>
			</g>
		</g>
		<g>
			<g>
				<path style="fill:#E0E0E0;" d="M72.924,198.132l2.31,0.868l-2.005,0.569c-0.669,0.19-1.2,0.7-1.417,1.361l-0.726,2.217
					l-0.892-2.224c-0.221-0.552-0.667-0.984-1.227-1.187l-2.028-0.736l2.197-0.903c0.532-0.219,0.95-0.646,1.156-1.183l0.794-2.062
					l0.569,1.917C71.842,197.398,72.312,197.902,72.924,198.132z"/>
			</g>
		</g>
	</g>
	<g>
		<g>
			<g>
				<g>
					<g>
						<g>
							<g>
								<g>
									<path style="fill:#E0E0E0;" d="M468.565,253.096c-23.56-10.84-45.758-2.483-45.758-2.483
										C439.94,264.322,468.565,253.096,468.565,253.096z"/>
								</g>
							</g>
						</g>
					</g>
				</g>
			</g>
			<g>
				<g>
					<g>
						<g>
							<g>
								<g>
									<path style="fill:#E0E0E0;" d="M398.489,235.962c-3.515,15.522,4.483,28.621,4.483,28.621
										C409.075,252.808,398.489,235.962,398.489,235.962z"/>
								</g>
							</g>
						</g>
					</g>
				</g>
			</g>
			<g>
				<g>
					<g>
						<g>
							<g>
								<g>
									<path style="fill:#E0E0E0;" d="M409.237,264.27c17.488,7.72,34.742,1.409,34.742,1.409
										C431.503,255.797,409.237,264.27,409.237,264.27z"/>
								</g>
							</g>
						</g>
					</g>
				</g>
			</g>
			<g>
				<g>
					<g>
						<g>
							<g>
								<g>
									<g>
										<path style="fill:#E0E0E0;" d="M436.736,236.738c-0.239-0.263-10.672,8.817-23.3,20.278
											c-12.633,11.465-22.677,20.969-22.439,21.232c0.238,0.263,10.669-8.815,23.302-20.28
											C426.927,246.507,436.974,237.001,436.736,236.738z"/>
									</g>
								</g>
							</g>
						</g>
					</g>
				</g>
			</g>
			<g>
				<g>
					<g>
						<g>
							<g>
								<g>
									<path style="fill:#E0E0E0;" d="M470.625,213.375c0,0-29.381,3.452-38.618,28.216
										C432.008,241.591,457.117,238.991,470.625,213.375z"/>
								</g>
							</g>
						</g>
					</g>
				</g>
			</g>
			<g>
				<g>
					<g>
						<g>
							<g>
								<g>
									<path style="fill:#E0E0E0;" d="M428.994,207.091c0,0-21.532,20.285-14.187,45.675
										C414.806,252.767,433.417,235.712,428.994,207.091z"/>
								</g>
							</g>
						</g>
					</g>
				</g>
			</g>
		</g>
	</g>
	<g>
		<g>
			<g>
				<g>
					<g>
						<g>
							<g>
								<g>
									<path style="fill:#E0E0E0;" d="M56.301,287.879c-4.908,20.004,4.95,36.057,4.95,36.057
										C69.363,308.513,56.301,287.879,56.301,287.879z"/>
								</g>
							</g>
						</g>
					</g>
				</g>
			</g>
			<g>
				<g>
					<g>
						<g>
							<g>
								<g>
									<path style="fill:#E0E0E0;" d="M53.485,345.106c12.634,0.405,21.645-7.803,21.645-7.803
										C65.029,334.315,53.485,345.106,53.485,345.106z"/>
								</g>
							</g>
						</g>
					</g>
				</g>
			</g>
			<g>
				<g>
					<g>
						<g>
							<g>
								<g>
									<path style="fill:#E0E0E0;" d="M73.943,332.464c3.388-14.799-4.13-27.305-4.13-27.305
										C63.985,316.375,73.943,332.464,73.943,332.464z"/>
								</g>
							</g>
						</g>
					</g>
				</g>
			</g>
			<g>
				<g>
					<g>
						<g>
							<g>
								<g>
									<g>
										<path style="fill:#E0E0E0;" d="M48.334,315.163c-0.169,0.226,8.482,6.995,19.32,15.119
											c10.842,8.126,19.765,14.529,19.934,14.304c0.169-0.225-8.48-6.994-19.322-15.12
											C57.428,321.341,48.503,314.937,48.334,315.163z"/>
									</g>
								</g>
							</g>
						</g>
					</g>
				</g>
			</g>
			<g>
				<g>
					<g>
						<g>
							<g>
								<g>
									<path style="fill:#E0E0E0;" d="M25.015,292.25c0,0,7.114,22.392,27.816,25.869C52.83,318.119,47.024,298.929,25.015,292.25
										z"/>
								</g>
							</g>
						</g>
					</g>
				</g>
			</g>
			<g>
				<g>
					<g>
						<g>
							<g>
								<g>
									<path style="fill:#E0E0E0;" d="M26.38,325.662c0,0,19.06,13.739,37.754,4.19C64.134,329.852,48.033,317.905,26.38,325.662z
										"/>
								</g>
							</g>
						</g>
					</g>
				</g>
			</g>
		</g>
	</g>
</g>
<g id="Background_Simple" style="display:none;">
	<g style="display:inline;">
		<path style="fill:#F5F5F5;" d="M84.85,133.758l1.542-3.56c12.996-30.009,41.087-50.887,73.404-53.269
			c4.154-0.306,8.332-0.313,12.497-0.004c29.988,2.227,58.365,20.768,72.753,47.534c8.462,15.742,12.817,34.607,26.354,46.164
			c17.618,15.04,43.6,12.013,66.28,8.169c22.68-3.844,48.688-6.806,66.241,8.312c10.993,9.468,16.125,24.377,17.344,38.915
			c3.227,38.489-18.697,76.318-50.221,97.959c-31.524,21.641-71.182,28.648-109.268,26.277
			c-53.354-3.322-106.679-25.267-142.462-65.573S67.699,184.935,84.85,133.758z"/>
	</g>
</g>
<g id="Table">
	<g>
		<g>
			<path style="fill:#263238;" d="M452.95,458.582c0,0.144-90.871,0.26-202.94,0.26c-112.108,0-202.959-0.117-202.959-0.26
				s90.852-0.26,202.959-0.26C362.079,458.321,452.95,458.438,452.95,458.582z"/>
		</g>
	</g>
</g>
<g id="Plants">
	<g>
		<g>
			<g>
				<g>
					<g>
						<g>
							<g>
								<path style="fill:#455A64;" d="M404.378,199.655c-34.364,1.643-55.387,25.054-55.387,25.054
									C377.541,230.373,404.378,199.655,404.378,199.655z"/>
							</g>
						</g>
					</g>
				</g>
			</g>
			<g>
				<g>
					<g>
						<g>
							<g>
								<path style="fill:#455A64;" d="M311.402,222.329c5.352,20.423,22.777,30.954,22.777,30.954
									C334.165,235.689,311.402,222.329,311.402,222.329z"/>
							</g>
						</g>
					</g>
				</g>
			</g>
			<g>
				<g>
					<g>
						<g>
							<g>
								<path style="fill:#455A64;" d="M341.364,249.083c25.308-1.604,41.762-19.583,41.762-19.583
									C362.396,225.495,341.364,249.083,341.364,249.083z"/>
							</g>
						</g>
					</g>
				</g>
			</g>
			<g>
				<g>
					<g>
						<g>
							<g>
								<g>
									<path style="fill:#455A64;" d="M356.904,199.858c-0.442-0.164-7.172,16.905-15.033,38.119
										c-7.863,21.222-13.877,38.551-13.435,38.715c0.441,0.164,7.171-16.902,15.033-38.123
										C351.329,217.355,357.344,200.021,356.904,199.858z"/>
								</g>
							</g>
						</g>
					</g>
				</g>
			</g>
			<g>
				<g>
					<g>
						<g>
							<g>
								<path style="fill:#455A64;" d="M382.516,151.632c0,0-32.478,22.028-28.212,56.83
									C354.305,208.462,382.276,190.049,382.516,151.632z"/>
							</g>
						</g>
					</g>
				</g>
			</g>
			<g>
				<g>
					<g>
						<g>
							<g>
								<path style="fill:#455A64;" d="M329.663,169.689c0,0-12.946,37.046,11.224,62.446
									C340.887,232.136,352.369,200.678,329.663,169.689z"/>
							</g>
						</g>
					</g>
				</g>
			</g>
		</g>
	</g>
	<g>
		<g>
			<g>
				<g>
					<g>
						<g>
							<g>
								<path style="fill:#455A64;" d="M61.778,287.521c24.794-7.296,45.48,4.143,45.48,4.143
									C88.389,302.714,61.778,287.521,61.778,287.521z"/>
							</g>
						</g>
					</g>
				</g>
			</g>
			<g>
				<g>
					<g>
						<g>
							<g>
								<path style="fill:#455A64;" d="M133.349,280.72c1.23,15.813-8.543,27.577-8.543,27.577
									C120.484,295.806,133.349,280.72,133.349,280.72z"/>
							</g>
						</g>
					</g>
				</g>
			</g>
			<g>
				<g>
					<g>
						<g>
							<g>
								<path style="fill:#455A64;" d="M118.672,307.086c-18.357,5.093-34.462-3.615-34.462-3.615
									C97.936,295.523,118.672,307.086,118.672,307.086z"/>
							</g>
						</g>
					</g>
				</g>
			</g>
			<g>
				<g>
					<g>
						<g>
							<g>
								<g>
									<path style="fill:#455A64;" d="M95.522,275.975c0.273-0.225,9.253,10.232,20.055,23.353
										c10.806,13.126,19.342,23.944,19.068,24.169c-0.273,0.225-9.251-10.23-20.057-23.355
										C103.787,287.021,95.249,276.199,95.522,275.975z"/>
								</g>
							</g>
						</g>
					</g>
				</g>
			</g>
			<g>
				<g>
					<g>
						<g>
							<g>
								<path style="fill:#455A64;" d="M65.469,248.055c0,0,28.475,7.637,34.016,33.387
									C99.485,281.442,75.099,275.261,65.469,248.055z"/>
							</g>
						</g>
					</g>
				</g>
			</g>
			<g>
				<g>
					<g>
						<g>
							<g>
								<path style="fill:#455A64;" d="M107.427,247.856c0,0,18.31,23.105,7.41,47.084
									C114.838,294.94,98.942,275.441,107.427,247.856z"/>
							</g>
						</g>
					</g>
				</g>
			</g>
		</g>
	</g>
</g>
<g id="Speech_Bubble">
	<g>
		<g>
			<g>
				<g>
					<g>
						<g>
							<g>
								<g>
									<g>
										<g>
											<g>
												<g>
													<g>
														<g>
															<g>
																<path style="fill:#FFFFFF;" d="M308.596,120.924l4.38-12.877c-3.612-6.934-5.414-14.921-4.811-23.291
																	c1.733-24.072,22.652-42.182,46.724-40.449c24.072,1.733,42.182,22.652,40.449,46.725
																	c-1.733,24.072-22.652,42.182-46.725,40.449c-10.052-0.724-19.056-4.801-26.018-11.048l0.014,0.021L308.596,120.924
																	z"/>
															</g>
														</g>
														<g>
															<g>
																<g>
																	<path style="fill:#263238;" d="M308.596,120.924c0,0,0.289,0.002,0.883-0.011c0.614-0.015,1.5-0.036,2.663-0.064
																		c2.389-0.064,5.901-0.159,10.47-0.283l0.197-0.005l-0.106-0.168l-0.013-0.021l-0.17,0.144
																		c4.168,3.756,10.474,7.979,19.003,10.042c2.12,0.519,4.367,0.885,6.71,1.075c2.347,0.075,4.786,0.244,7.286-0.051
																		c4.997-0.413,10.257-1.722,15.309-4.162c5.048-2.428,9.877-5.981,13.914-10.577
																		c4.038-4.584,7.27-10.218,9.146-16.5c1.915-6.269,2.299-13.193,1.128-19.995
																		c-1.182-6.796-3.97-13.525-8.424-19.189c-0.563-0.709-1.109-1.429-1.682-2.123
																		c-0.621-0.652-1.242-1.303-1.86-1.952l-0.927-0.972l-1.009-0.882c-0.675-0.584-1.348-1.167-2.019-1.749
																		c-0.691-0.556-1.437-1.039-2.15-1.56c-0.73-0.497-1.412-1.063-2.196-1.467c-1.532-0.859-3.008-1.809-4.627-2.454
																		c-6.317-2.904-13.151-4.218-19.734-4.039c-6.59,0.226-12.891,1.944-18.366,4.721
																		c-5.486,2.772-10.148,6.582-13.773,10.879c-3.637,4.299-6.233,9.076-7.889,13.824
																		c-0.889,2.363-1.365,4.762-1.855,7.065c-0.27,2.34-0.631,4.59-0.617,6.779c-0.119,8.78,2.386,15.936,4.988,20.871
																		l-0.007-0.087c-1.398,4.204-2.474,7.438-3.207,9.639c-0.353,1.072-0.622,1.889-0.809,2.456
																		C308.676,120.655,308.596,120.924,308.596,120.924s0.111-0.293,0.308-0.85c0.2-0.57,0.488-1.391,0.866-2.469
																		c0.756-2.175,1.867-5.369,3.311-9.522l0.015-0.044l-0.022-0.043c-2.549-4.931-4.995-12.052-4.839-20.762
																		c-0.005-2.172,0.364-4.403,0.639-6.722c0.495-2.281,0.974-4.658,1.863-6.996c1.655-4.699,4.24-9.422,7.85-13.669
																		c3.599-4.245,8.22-8.005,13.651-10.738c5.419-2.737,11.651-4.426,18.165-4.643c6.509-0.17,13.261,1.134,19.5,4.008
																		c1.6,0.638,3.057,1.578,4.571,2.427c0.775,0.399,1.448,0.959,2.169,1.45c0.704,0.515,1.441,0.992,2.124,1.542
																		c0.663,0.575,1.328,1.151,1.994,1.729l0.997,0.871l0.916,0.961c0.611,0.641,1.224,1.284,1.838,1.929
																		c0.566,0.686,1.105,1.398,1.661,2.098c4.402,5.597,7.157,12.243,8.328,18.957c1.16,6.72,0.788,13.566-1.099,19.764
																		c-1.847,6.211-5.034,11.785-9.02,16.327c-3.985,4.553-8.756,8.079-13.747,10.494
																		c-4.995,2.427-10.2,3.738-15.149,4.163c-2.476,0.301-4.895,0.14-7.223,0.075c-2.324-0.18-4.554-0.533-6.659-1.04
																		c-8.469-2.011-14.756-6.168-18.933-9.871l-0.613-0.543l0.443,0.688l0.013,0.021l0.091-0.173
																		c-4.533,0.182-8.017,0.323-10.387,0.418c-1.176,0.051-2.072,0.089-2.693,0.116
																		C308.917,120.902,308.596,120.924,308.596,120.924z"/>
																</g>
															</g>
														</g>
													</g>
												</g>
											</g>
										</g>
									</g>
								</g>
							</g>
						</g>
					</g>
				</g>
			</g>
		</g>
		<g>
			<g>
				<g>
					<path style="fill:#FF725E;" d="M373.878,82.524c-0.262-2.886-1.593-5.614-3.472-7.82c-1.84-2.161-4.269-3.888-7.028-4.558
						c-2.931-0.711-6.145-0.159-8.67,1.489c-1.502,0.98-2.747,2.34-3.621,3.905c-0.788-1.425-1.882-2.682-3.202-3.636
						c-2.445-1.765-5.63-2.468-8.591-1.896c-2.787,0.538-5.295,2.149-7.235,4.221c-1.981,2.115-3.44,4.777-3.837,7.647
						c-0.498,3.595,0.106,7.557,1.902,10.711c1.897,3.33,5.025,6.058,8.26,8.112c5.44,3.455,12.608,7.789,12.608,7.789
						s6.25-4.448,11.848-7.642c3.329-1.9,6.582-4.476,8.633-7.713C373.415,90.068,374.205,86.139,373.878,82.524z"/>
				</g>
			</g>
		</g>
	</g>
</g>
<g id="Character_00000093866495825124869720000012075011425276354206_">
	<g>
		<g>
			<g>
				<path style="fill:#AE7461;" d="M298.93,234.753c0,0,20.948-0.79,31.225,25.691c10.277,26.482,20.553,81.817,20.553,81.817
					l64.547-39.581l20.976,24.463c0,0-95.8,72.034-104.891,75.986c-9.091,3.952-19.367-5.534-23.715-11.067
					C303.278,386.529,298.93,234.753,298.93,234.753z"/>
			</g>
			<g>
				<path style="fill:#AE7461;" d="M80.224,367.072l52.538,12.469c0,0,11.459-90.044,19.791-104.104
					c11.046-18.64,28.063-22.925,28.063-22.925l14.624,45.454c0,0-16.205,125.294-25.691,132.409
					c-9.486,7.115-96.4-34.215-96.4-34.215L80.224,367.072z"/>
			</g>
			<g>
				<path style="fill:#FF725E;" d="M348.818,458.582c0,0-21.995-69.816-21.995-86.167c0-5.143,4.761-33.271,4.761-55.083
					c0-17.366-9.136-40.157-14.237-51.887c-1.669-3.839-18.452-30.643-18.452-30.643l-31.399-4.183l-52.297,3.907l-43.448,21.515
					l15.181,96.833l14.749,61.631l-19.063,44.078H348.818z"/>
			</g>
			<g>
				<g>
					<path style="fill:#263238;" d="M270.153,383.839c12.799-12.563,26.438-24.271,40.794-35.02"/>
				</g>
			</g>
			<g>
				<path style="fill:#FF725E;" d="M134.195,344.417l57.196,11.119c0,0-17.335-100.639-17.723-100.447
					c-0.388,0.192-21.667,7.868-27.483,34.927C140.31,317.344,134.195,344.417,134.195,344.417z"/>
			</g>
			<g>
				<path style="fill:#FF725E;" d="M293.909,234.137c0,0,21.862-0.73,31.312,16.593c9.45,17.323,26.562,65.083,26.562,65.083
					l-28.605,11.238L293.909,234.137z"/>
			</g>
			<g>
				<g>
					<path style="fill:#263238;" d="M315.394,276.941c0.013-0.013,0.152,0.11,0.407,0.355c0.292,0.291,0.654,0.652,1.096,1.092
						c0.479,0.472,1.049,1.065,1.656,1.803c0.614,0.731,1.354,1.533,2.051,2.514c0.362,0.483,0.739,0.988,1.131,1.512
						c0.389,0.529,0.744,1.114,1.139,1.701c0.808,1.164,1.534,2.492,2.327,3.872c1.496,2.809,2.935,6.011,4.093,9.501
						c1.122,3.503,1.848,6.939,2.296,10.09c0.174,1.583,0.369,3.083,0.403,4.5c0.028,0.707,0.086,1.389,0.083,2.046
						c-0.008,0.655-0.015,1.285-0.022,1.889c0.015,1.204-0.111,2.287-0.175,3.24c-0.055,0.954-0.166,1.769-0.275,2.433
						c-0.097,0.615-0.177,1.12-0.241,1.528c-0.061,0.348-0.101,0.529-0.119,0.526c-0.018-0.003-0.012-0.189,0.015-0.542
						c0.038-0.41,0.086-0.917,0.144-1.536c0.078-0.665,0.159-1.479,0.186-2.43c0.037-0.949,0.136-2.027,0.097-3.223
						c-0.004-0.599-0.007-1.225-0.011-1.875c-0.007-0.652-0.076-1.328-0.112-2.029c-0.052-1.405-0.262-2.892-0.447-4.46
						c-0.47-3.121-1.203-6.522-2.315-9.994c-1.148-3.459-2.561-6.637-4.021-9.435c-0.775-1.375-1.481-2.7-2.267-3.866
						c-0.384-0.588-0.727-1.174-1.105-1.705c-0.38-0.528-0.746-1.035-1.096-1.521c-0.674-0.989-1.39-1.801-1.979-2.547
						c-0.582-0.752-1.128-1.362-1.582-1.853c-0.412-0.466-0.749-0.848-1.022-1.156C315.496,277.101,315.381,276.954,315.394,276.941
						z"/>
				</g>
			</g>
			<g>
				<g>
					<path style="fill:#263238;" d="M175.291,307.207c0.017-0.006,0.096,0.167,0.232,0.503c0.151,0.392,0.339,0.881,0.569,1.478
						c0.487,1.286,1.158,3.159,1.958,5.484c1.602,4.649,3.677,11.12,5.705,18.345c2.025,7.228,3.617,13.836,4.665,18.64
						c0.525,2.402,0.926,4.351,1.179,5.702c0.114,0.629,0.207,1.145,0.282,1.558c0.059,0.357,0.081,0.547,0.064,0.55
						c-0.018,0.004-0.074-0.179-0.166-0.529c-0.1-0.408-0.225-0.916-0.377-1.537c-0.333-1.409-0.787-3.326-1.34-5.662
						c-1.14-4.779-2.786-11.363-4.808-18.581c-2.025-7.215-4.042-13.695-5.553-18.369c-0.743-2.283-1.352-4.157-1.799-5.534
						c-0.193-0.61-0.35-1.109-0.477-1.509C175.321,307.399,175.274,307.214,175.291,307.207z"/>
				</g>
			</g>
		</g>
		<g>
			<g>
				<path style="fill:#263238;" d="M201.774,174.788c-9.177-16.829-11.148-37.666-5.298-56.006l-23.448-2.703
					c-16.08,0.975-30.088,13.446-36.556,28.658c-6.467,15.212-6.357,32.646-3.259,48.945c1.169,6.152,2.623,13.033-0.686,18.291
					c-2.799,4.447-8.281,6.381-11.389,10.605c-4.618,6.277-2.154,16.136,3.957,20.866c6.111,4.73,14.636,5.001,21.914,2.602
					c7.278-2.399,13.592-7.12,19.719-11.827c2.656,4.439,8.707,5.916,13.428,4.042c4.721-1.873,8.072-6.479,9.549-11.467
					c1.478-4.988,1.301-10.342,0.635-15.512c8.925,2.705,19.334-4.778,19.959-14.349
					C210.825,188.878,205.612,181.825,201.774,174.788z"/>
			</g>
			<g>
				<path style="fill:#455A64;" d="M162.377,156.802c-0.742-4.929-1.471-9.952-0.677-14.874c0.795-4.921,3.365-9.81,7.755-12.169
					c2.067-1.111,4.713-1.569,6.709-0.337c1.996,1.233,2.572,4.574,0.635,5.896l-0.118,0.645
					c-1.145,6.856-2.427,13.689-3.842,20.494c-0.356,1.713-0.741,3.472-1.718,4.924c-0.978,1.453-2.7,2.542-4.427,2.257
					C163.839,163.165,162.808,159.663,162.377,156.802z"/>
			</g>
			<g>
				<path style="fill:#263238;" d="M175.298,122.139c8.572-16.218,24.925-29.086,44.926-33.14
					c11.128-2.255,16.184-0.636,24.618,0.124c8.433,0.759,16.457,3.804,22.457,9.779c7.127,7.096,13.511,15.324,16.318,24.982
					c2.883,9.921,4.747,19.903,4.046,30.21c-0.88,12.924-7.105,21.452-11.635,30.738l-15.119,8.528
					c-14.174,2.988-28.549,5.993-43.01,5.178c-14.463-0.815-29.271-5.92-38.847-16.789
					C165.747,166.649,165.893,139.931,175.298,122.139z"/>
			</g>
			<g>
				<path style="fill:#AE7461;" d="M198.241,117.938l32.019-19.722l9.175-0.533c20.245-3.479,38.114,16.386,41.123,32.749
					c3.342,18.179,6.705,40.506,6.168,54.432c-1.081,28.003-23.715,34.29-23.715,34.29s0.953,4.284,2.715,13.314v0
					c-3.813,14.919-26.999,18.674-49.543,6.319l-0.883-0.967l-24.535-109.046C190.066,123.769,193.314,119.061,198.241,117.938z"/>
			</g>
			<g>
				<path style="fill:#263238;" d="M272.523,154.577c0.288,1.854-1.044,3.626-2.974,3.962c-1.926,0.336-3.724-0.89-4.012-2.743
					c-0.288-1.853,1.044-3.627,2.969-3.963C270.436,151.495,272.235,152.724,272.523,154.577z"/>
			</g>
			<g>
				<path style="fill:#263238;" d="M275.988,140.615c-0.382,0.511-3.288-1.145-7.08-0.682c-3.794,0.408-6.344,2.692-6.811,2.277
					c-0.227-0.181,0.121-1.064,1.226-2.091c1.088-1.021,3.021-2.118,5.385-2.391c2.364-0.269,4.455,0.364,5.704,1.117
					C275.684,139.599,276.178,140.384,275.988,140.615z"/>
			</g>
			<g>
				<path style="fill:#263238;" d="M257.018,174.313c-0.044-0.213,2.265-0.902,6.027-1.847c0.956-0.216,1.85-0.518,1.935-1.198
					c0.144-0.727-0.385-1.722-0.989-2.793c-1.191-2.235-2.438-4.578-3.746-7.033c-5.23-10.024-9.142-18.314-8.736-18.52
					c0.406-0.207,4.976,7.75,10.207,17.774c1.266,2.475,2.477,4.833,3.63,7.09c0.498,1.057,1.277,2.23,0.956,3.741
					c-0.175,0.755-0.823,1.365-1.424,1.607c-0.598,0.264-1.141,0.338-1.617,0.425C259.441,174.224,257.058,174.526,257.018,174.313z
					"/>
			</g>
			<g>
				<path style="fill:#6F4439;" d="M263.049,219.116c0,0-18.346,3.401-37.978-5.421c0,0,12.08,17.878,39.279,12.02L263.049,219.116z
					"/>
			</g>
			<g>
				<path style="fill:#263238;" d="M272.4,127.684c-0.526,1.002-3.505,0.73-6.864,1.418c-3.381,0.579-6.064,1.917-6.91,1.172
					c-0.381-0.368-0.118-1.315,0.947-2.387c1.048-1.066,2.949-2.164,5.266-2.601c2.317-0.433,4.478-0.1,5.833,0.515
					C272.045,126.414,272.623,127.202,272.4,127.684z"/>
			</g>
			<g>
				<path style="fill:#263238;" d="M230.988,160.591c0.226,1.862,1.989,3.206,3.938,3.004c1.945-0.2,3.343-1.868,3.117-3.73
					c-0.227-1.862-1.991-3.207-3.935-3.007C232.159,157.058,230.762,158.729,230.988,160.591z"/>
			</g>
			<g>
				<path style="fill:#263238;" d="M224.896,148.083c0.507,0.389,2.853-1.995,6.628-2.581c3.762-0.638,6.837,0.867,7.173,0.34
					c0.169-0.236-0.405-0.991-1.748-1.68c-1.324-0.687-3.483-1.218-5.832-0.838c-2.348,0.384-4.189,1.561-5.186,2.625
					C224.912,147.023,224.649,147.911,224.896,148.083z"/>
			</g>
			<g>
				<path style="fill:#263238;" d="M225.042,135.65c0.878,0.74,3.65-0.608,7.143-1.202c3.474-0.703,6.555-0.444,7.096-1.447
					c0.231-0.482-0.372-1.267-1.795-1.875c-1.404-0.606-3.642-0.931-6.038-0.487c-2.394,0.447-4.356,1.552-5.435,2.622
					C224.915,134.337,224.649,135.284,225.042,135.65z"/>
			</g>
			<g>
				<path style="fill:#AE7461;" d="M203.467,173.696c-0.249-2.046-3.191-6.589-5.25-6.663c-5.497-0.196-15.175,1.399-13.628,15.117
					c2.115,18.752,20.506,12.761,20.478,12.22C205.046,193.946,204.328,180.761,203.467,173.696z"/>
			</g>
			<g>
				<path style="fill:#6F4439;" d="M199.121,188.103c-0.089-0.051-0.301,0.266-0.824,0.581c-0.512,0.306-1.418,0.582-2.438,0.326
					c-2.063-0.504-4.085-3.46-4.557-6.831c-0.241-1.702-0.067-3.367,0.386-4.781c0.418-1.436,1.197-2.494,2.175-2.783
					c0.966-0.342,1.739,0.176,2.029,0.676c0.311,0.497,0.233,0.885,0.336,0.905c0.058,0.042,0.367-0.359,0.129-1.116
					c-0.12-0.364-0.389-0.782-0.871-1.093c-0.491-0.315-1.173-0.427-1.86-0.273c-1.435,0.264-2.586,1.74-3.084,3.292
					c-0.576,1.568-0.813,3.444-0.543,5.355c0.546,3.765,2.879,7.083,5.679,7.561c1.357,0.195,2.413-0.327,2.931-0.834
					C199.139,188.561,199.19,188.129,199.121,188.103z"/>
			</g>
			<g>
				<path style="fill:#263238;" d="M197.469,167.219l5.572,4.062c20.543-18.535,49.767-76.799,46.444-75.523
					c0,0-14.951-3.288-29.634,1.947c-14.683,5.234-42.061,17.848-38.488,35.622C184.937,151.1,197.469,167.219,197.469,167.219z"/>
			</g>
			<g>
				<path style="fill:#6F4439;" d="M245.416,180.448c-0.548-0.217-1.138-0.439-1.713-0.307c-0.53,0.121-0.949,0.525-1.284,0.953
					c-1.58,2.022-1.782,5.019-0.488,7.235c1.294,2.216,4.004,3.512,6.541,3.13c2.538-0.382,5.338-2.279,6.181-7.102
					C251.762,183.211,248.307,181.594,245.416,180.448z"/>
			</g>
			<g>
				<path style="fill:#263238;" d="M248.499,191.637c0.016-0.182-1.716,0.212-3.913-1.054c-1.063-0.62-2.174-1.703-2.69-3.231
					c-0.529-1.507-0.461-3.432,0.428-5.053c0.454-0.784,1.064-1.576,1.725-1.564c0.696-0.015,1.593,0.481,2.378,0.772
					c1.515,0.603,2.934,1.168,4.25,1.691c2.429,0.937,3.955,1.457,4.003,1.338c0.047-0.12-1.393-0.856-3.76-1.949
					c-1.292-0.58-2.688-1.207-4.176-1.876c-0.812-0.299-1.518-0.834-2.725-0.886c-0.616,0.003-1.19,0.35-1.564,0.737
					c-0.389,0.393-0.674,0.824-0.946,1.289c-1.03,1.886-1.071,4.077-0.42,5.792c0.646,1.749,1.974,2.917,3.181,3.518
					C246.787,192.387,248.574,191.694,248.499,191.637z"/>
			</g>
			<g style="opacity:0.3;">
				<ellipse style="fill:#6F4439;" cx="230.357" cy="171.281" rx="7.711" ry="3.855"/>
			</g>
			<g style="opacity:0.3;">
				<path style="fill:#6F4439;" d="M284.228,168.478c0,2.129-2.751,3.855-6.145,3.855s-6.145-1.726-6.145-3.855
					c0-2.129,2.751-3.855,6.145-3.855S284.228,166.349,284.228,168.478z"/>
			</g>
			<g>
				<g>
					<path style="fill:#455A64;" d="M185.838,187.383c-0.009,0.016-0.273-0.128-0.77-0.418c-0.26-0.154-0.564-0.334-0.916-0.542
						c-0.182-0.109-0.377-0.226-0.583-0.35c-0.196-0.145-0.403-0.299-0.621-0.461c-1.812-1.223-4.189-3.388-6.531-6.531
						c-2.36-3.133-4.462-7.372-5.985-12.32c-0.711-2.489-1.322-5.144-1.678-7.941c-0.347-2.796-0.497-5.717-0.394-8.704
						c0.431-11.953,3.722-22.53,7.519-29.359c1.865-3.439,3.714-6.024,5.11-7.702c0.669-0.864,1.279-1.459,1.655-1.892
						c0.389-0.423,0.599-0.639,0.612-0.626c0.013,0.012-0.171,0.252-0.534,0.696c-0.35,0.455-0.933,1.069-1.574,1.949
						c-1.342,1.71-3.133,4.312-4.944,7.749c-3.687,6.827-6.895,17.332-7.324,29.207c-0.102,2.958,0.044,5.849,0.38,8.619
						c0.345,2.771,0.941,5.402,1.632,7.87c1.484,4.905,3.527,9.114,5.823,12.24c2.278,3.136,4.59,5.32,6.353,6.584
						c0.212,0.168,0.413,0.327,0.603,0.477c0.2,0.13,0.389,0.252,0.566,0.367c0.34,0.223,0.634,0.417,0.885,0.582
						C185.6,187.192,185.847,187.367,185.838,187.383z"/>
				</g>
			</g>
		</g>
		<g>
			<g>
				<g>
					
						<rect x="64.983" y="279.987" transform="matrix(0.9837 -0.1796 0.1796 0.9837 -58.4891 50.8581)" style="fill:#455A64;" width="373.17" height="136.778"/>
				</g>
				<g>
					<g>
						
							<rect x="64.983" y="273.566" transform="matrix(0.9837 -0.1796 0.1796 0.9837 -57.3356 50.7537)" style="fill:#FFFFFF;" width="373.17" height="136.777"/>
					</g>
					<g>
						<g>
							<path style="fill:#263238;" d="M422.832,241.161c0.247,1.342,9.32,50.667,24.744,134.521l0.032,0.174l-0.174,0.032
								C356.912,392.438,225.872,416.398,80.374,443l-0.024,0.004l-0.256,0.047l-0.047-0.256
								c-8.568-46.937-16.86-92.367-24.561-134.554l-0.045-0.247l0.247-0.045C267.838,269.356,420.482,241.588,422.832,241.161
								c-2.348,0.43-154.956,28.404-367.055,67.282l0.202-0.292c7.707,42.186,16.005,87.614,24.58,134.551l-0.303-0.209l0.024-0.004
								c145.51-26.538,276.561-50.438,367.091-66.949l-0.142,0.206C432.021,291.852,423.076,242.503,422.832,241.161z"/>
						</g>
					</g>
				</g>
				<g>
					<path style="fill:#263238;" d="M91.884,342.025l30.04-5.797l1.705,8.835l-10.16,1.961l10.229,53.01l-9.719,1.875l-10.229-53.01
						l-10.161,1.961L91.884,342.025z"/>
					<path style="fill:#263238;" d="M147.816,395.379l-9.719,1.875l-11.935-61.845l9.719-1.875l5.115,26.505l11.043-2.131
						l-5.115-26.506l9.896-1.909l11.935,61.845l-9.896,1.91l-5.115-26.506l-11.044,2.132L147.816,395.379z"/>
					<path style="fill:#263238;" d="M207.275,383.905l-9.807,1.893l-3.844-10.897l-11.927,2.302l0.486,11.545l-8.923,1.722
						l-2.039-63.754l14.225-2.745L207.275,383.905z M181.314,368.571l9.365-1.807l-10.718-30.373L181.314,368.571z"/>
					<path style="fill:#263238;" d="M211.795,336.572l8.644,44.793l-8.747,1.688l-11.935-61.845l12.192-2.353l17.127,35.091
						l-7.144-37.018l8.658-1.671l11.935,61.845l-9.984,1.927L211.795,336.572z"/>
					<path style="fill:#263238;" d="M257.471,348.651l-1.914,6.234l3.666,18.995l-9.719,1.875L237.57,313.91l9.719-1.875l5.2,26.946
						l7.522-29.401l9.719-1.876l-8.198,30.173l20.133,31.672l-9.983,1.927L257.471,348.651z"/>
					<path style="fill:#263238;" d="M304.92,343.801l-20.26-38.977l10.16-1.961l12.86,26.751l1.982-29.615l9.277-1.79l-4.302,43.718
						l3.956,20.497l-9.719,1.875L304.92,343.801z"/>
					<path style="fill:#263238;" d="M323.571,312.709c-1.91-9.895,2.212-16.556,11.754-18.397
						c9.542-1.841,15.846,2.808,17.756,12.702l6.205,32.16c1.91,9.896-2.212,16.557-11.753,18.397
						c-9.543,1.842-15.847-2.807-17.756-12.702L323.571,312.709z M339.615,343.612c0.852,4.418,3.12,5.722,6.213,5.125
						c3.092-0.597,4.712-2.65,3.859-7.068l-6.445-33.397c-0.853-4.417-3.119-5.721-6.212-5.124c-3.093,0.597-4.712,2.65-3.859,7.067
						L339.615,343.612z"/>
					<path style="fill:#263238;" d="M365.765,289.172l9.207,47.708c0.853,4.419,3.103,5.634,6.194,5.037
						c3.093-0.597,4.729-2.561,3.877-6.98l-9.207-47.708l9.189-1.773l9.087,47.091c1.909,9.895-1.947,16.504-11.489,18.345
						c-9.541,1.842-15.58-2.858-17.489-12.753l-9.088-47.091L365.765,289.172z"/>
					<path style="fill:#263238;" d="M402.18,332.088l-5.551-22.113l-4.978-25.798l9.719-1.876l4.979,25.798l3.076,22.592
						L402.18,332.088z M411.321,334.815l1.807,9.365l-9.365,1.808l-1.807-9.365L411.321,334.815z"/>
				</g>
			</g>
			<g>
				<g>
					<g>
						<path style="fill:#AE7461;" d="M84.785,367.027c-0.088-1.434-1.111-2.699-2.386-3.362c-1.275-0.663-2.765-0.799-4.199-0.703
							c1.632-0.43,2.491-2.459,1.988-4.07c-0.503-1.611-2.051-2.735-3.69-3.137c-1.64-0.402-3.366-0.189-5.02,0.146
							c-1.654,0.336-4.761,0.946-6.447,1.036l-10.438,2.604c-4.506,2.411-1.307,8.152,1.734,8.466
							c-1.305,0.959-2.212,1.053-2.807,2.559c-0.595,1.506-0.566,3.31,0.325,4.661c0.891,1.352,2.721,2.096,4.23,1.51
							c-1.606,1.909-1.841,4.854-0.557,6.993c0.772,1.287,2.061,2.226,3.491,2.656c0.72,0.217,1.465,0.295,2.214,0.247
							c0.267-0.017,0.592-0.004,0.841-0.117c0.123-0.056,0.217-0.143,0.309-0.239c0.42-0.438,0.756-0.94,1.21-1.354
							c0.171-0.156,0.348-0.305,0.53-0.448c0.829-0.65,1.762-1.159,2.736-1.555c0.447-0.182,0.977-0.28,1.391-0.528
							c0.28-0.167,0.46-0.451,0.704-0.661c1.556-1.339,3.746-1.864,5.667-2.426c2.168-0.634,4.435-1.405,5.899-3.125
							c1.465-1.72,1.697-4.682-0.103-6.047C83.834,369.962,84.873,368.462,84.785,367.027z"/>
					</g>
					<g>
						<g>
							<g>
								<g>
									<g>
										<path style="fill:#AE7461;" d="M63.799,392.609c0.386,1.339,1.131,2.69,2.406,3.25c1.512,0.663,3.902,0.116,5.428-0.515
											c-0.254-1.947-0.495-2.919-0.749-4.866c-0.053-0.41-0.257-0.702-0.134-1.097c0.324-1.042,2.392-1.567,3.261-2.229
											c1.506-1.147,1.624-3.596,0.447-5.079c-1.177-1.483-3.328-1.982-5.153-1.479c-1.825,0.503-3.324,1.869-4.323,3.477
											C63.421,386.585,62.98,389.766,63.799,392.609z"/>
									</g>
								</g>
							</g>
						</g>
					</g>
					<g>
						<g>
							<g>
								<g>
									<g>
										<g>
											<path style="fill:#6F4439;" d="M57.535,376.886c-0.095-0.349,5.395-2.144,12.259-4.008
												c6.867-1.865,12.509-3.094,12.604-2.744c0.095,0.349-5.394,2.143-12.261,4.008
												C63.273,376.007,57.63,377.236,57.535,376.886z"/>
										</g>
									</g>
								</g>
							</g>
						</g>
					</g>
					<g>
						<g>
							<g>
								<g>
									<g>
										<g>
											<path style="fill:#6F4439;" d="M55.94,368.077c-0.123-0.324,4.728-2.407,11.048-3.879
												c6.317-1.491,11.587-1.782,11.621-1.437c0.045,0.375-5.09,1.241-11.322,2.713
												C61.053,366.925,56.067,368.432,55.94,368.077z"/>
										</g>
									</g>
								</g>
							</g>
						</g>
					</g>
				</g>
				<g>
					<g>
						<g>
							<g>
								<g>
									<g>
										<path style="fill:#6F4439;" d="M63.791,389.684c-0.145,0.059-0.633-0.767-0.468-2.225
											c0.132-1.432,1.129-3.347,2.841-4.663c1.733-1.312,3.341-2.082,4.775-2.49c1.569-0.347,2.371,0.611,2.183,0.701
											c-0.107,0.142-0.827-0.283-1.922,0.187c-1.048,0.508-2.73,1.475-4.214,2.622c-1.515,1.178-2.411,2.645-2.755,3.828
											C63.871,388.819,63.987,389.639,63.791,389.684z"/>
									</g>
								</g>
							</g>
						</g>
					</g>
				</g>
			</g>
			<g>
				<g>
					<g>
						<path style="fill:#AE7461;" d="M415.46,304.57c-0.491-1.35-0.056-2.918,0.85-4.034c0.905-1.116,2.218-1.835,3.571-2.317
							c-1.668,0.256-3.264-1.264-3.445-2.942c-0.181-1.678,0.792-3.325,2.135-4.347c1.344-1.021,3.012-1.514,4.663-1.865
							c1.651-0.351,4.744-1.029,6.326-1.618l10.612-1.77c5.093,0.416,4.446,6.957,1.782,8.456c1.579,0.36,2.448,0.085,3.594,1.229
							c1.146,1.144,1.838,2.81,1.558,4.405c-0.279,1.595-1.661,3.007-3.279,3.07c2.234,1.111,3.622,3.719,3.297,6.192
							c-0.196,1.488-1.004,2.863-2.144,3.827c-0.574,0.486-1.226,0.854-1.932,1.109c-0.252,0.091-0.544,0.232-0.818,0.228
							c-0.135-0.002-0.256-0.045-0.379-0.096c-0.56-0.234-1.068-0.561-1.649-0.761c-0.219-0.075-0.44-0.142-0.664-0.2
							c-1.019-0.266-2.078-0.361-3.129-0.336c-0.483,0.011-1.007,0.132-1.486,0.07c-0.324-0.042-0.601-0.23-0.91-0.326
							c-1.96-0.609-4.178-0.218-6.164,0.032c-2.241,0.282-4.628,0.477-6.656-0.517c-2.028-0.994-3.421-3.619-2.314-5.588
							C417.502,306.884,415.951,305.921,415.46,304.57z"/>
					</g>
					<g>
						<g>
							<g>
								<g>
									<g>
										<path style="fill:#AE7461;" d="M444.899,319.677c0.179,1.382,0.035,2.918-0.912,3.94
											c-1.122,1.211-3.533,1.661-5.184,1.689c-0.543-1.887-0.708-2.874-1.251-4.762c-0.114-0.398-0.044-0.746-0.314-1.059
											c-0.713-0.827-2.818-0.485-3.879-0.745c-1.838-0.452-2.922-2.651-2.434-4.481c0.489-1.829,2.263-3.144,4.138-3.409
											c1.874-0.266,3.793,0.39,5.35,1.468C442.847,314.001,444.518,316.743,444.899,319.677z"/>
									</g>
								</g>
							</g>
						</g>
					</g>
					<g>
						<g>
							<g>
								<g>
									<g>
										<g>
											<path style="fill:#6F4439;" d="M444.382,302.76c-0.052-0.358-5.802,0.182-12.841,1.207
												c-7.042,1.024-12.706,2.145-12.654,2.503c0.052,0.358,5.801-0.182,12.843-1.207
												C438.768,304.239,444.434,303.118,444.382,302.76z"/>
										</g>
									</g>
								</g>
							</g>
						</g>
					</g>
					<g>
						<g>
							<g>
								<g>
									<g>
										<g>
											<path style="fill:#6F4439;" d="M442.336,294.045c-0.016-0.346-5.295-0.324-11.678,0.843
												c-6.389,1.148-11.338,2.981-11.232,3.311c0.108,0.362,5.163-0.889,11.466-2.021
												C437.188,295.025,442.361,294.421,442.336,294.045z"/>
										</g>
									</g>
								</g>
							</g>
						</g>
					</g>
				</g>
				<g>
					<g>
						<g>
							<g>
								<g>
									<g>
										<path style="fill:#6F4439;" d="M443.741,316.991c0.156-0.004,0.275-0.955-0.457-2.227
											c-0.691-1.261-2.369-2.62-4.463-3.146c-2.112-0.513-3.894-0.578-5.371-0.382c-1.577,0.307-1.932,1.505-1.723,1.513
											c0.155,0.088,0.646-0.589,1.837-0.594c1.163,0.049,3.091,0.265,4.91,0.726c1.859,0.477,3.265,1.466,4.052,2.414
											C443.324,316.229,443.544,317.028,443.741,316.991z"/>
									</g>
								</g>
							</g>
						</g>
					</g>
				</g>
			</g>
		</g>
	</g>
</g>
</svg>
